HIERARCHY
ROOT hip
{
	OFFSET 0.000000 0.000000 0.000000 
	CHANNELS 6 Xposition Yposition Zposition Xrotation Zrotation Yrotation
	JOINT abdomen
	{
		OFFSET 0.000000 3.402643 0.000000 
		CHANNELS 3 Xrotation Zrotation Yrotation
		JOINT chest
		{
			OFFSET 0.000000 8.438565 -0.680529 
			CHANNELS 3 Xrotation Zrotation Yrotation
			JOINT neck
			{
				OFFSET 0.000000 10.207942 -0.272212 
				CHANNELS 3 Xrotation Zrotation Yrotation
				JOINT head
				{
					OFFSET 0.000000 3.130431 0.000000 
					CHANNELS 3 Xrotation Zrotation Yrotation
					End Site
					{
						OFFSET 0.000000 3.130435 0.000000 
					}
				}
			}
			JOINT lCollar
			{
				OFFSET 3.470700 6.669187 -0.816635 
				CHANNELS 3 Yrotation Zrotation Xrotation
				JOINT lShldr
				{
					OFFSET 3.198488 0.000000 0.000000 
					CHANNELS 3 Zrotation Yrotation Xrotation
					JOINT lForeArm
					{
						OFFSET 10.139888 0.000000 0.000000 
						CHANNELS 3 Yrotation Zrotation Xrotation
						JOINT lHand
						{
							OFFSET 8.370511 0.000000 0.000000 
							CHANNELS 3 Zrotation Yrotation Xrotation
							End Site
							{
								OFFSET 4.083176 0.000000 0.000000 
							}
						}
					}
				}
			}
			JOINT rCollar
			{
				OFFSET -3.470700 6.669187 -0.816635 
				CHANNELS 3 Yrotation Zrotation Xrotation
				JOINT rShldr
				{
					OFFSET -3.198488 0.000000 0.000000 
					CHANNELS 3 Zrotation Yrotation Xrotation
					JOINT rForeArm
					{
						OFFSET -10.139888 0.000000 0.000000 
						CHANNELS 3 Yrotation Zrotation Xrotation
						JOINT rHand
						{
							OFFSET -8.370511 0.000000 0.000000 
							CHANNELS 3 Zrotation Yrotation Xrotation
							End Site
							{
								OFFSET -4.083176 0.000000 0.000000 
							}
						}
					}
				}
			}
		}
	}
	JOINT lThigh
	{
		OFFSET 5.308129 -1.633274 1.361059 
		CHANNELS 3 Xrotation Zrotation Yrotation
		JOINT lShin
		{
			OFFSET -2.041588 -20.007561 0.000000 
			CHANNELS 3 Xrotation Zrotation Yrotation
			JOINT lFoot
			{
				OFFSET 0.000000 -19.190928 -1.224953 
				CHANNELS 3 Xrotation Yrotation Zrotation
				End Site
				{
					OFFSET 0.000000 -2.449906 4.627600 
				}
			}
		}
	}
	JOINT rThigh
	{
		OFFSET -5.308129 -1.633274 1.361059 
		CHANNELS 3 Xrotation Zrotation Yrotation
		JOINT rShin
		{
			OFFSET 2.041588 -20.007561 0.000000 
			CHANNELS 3 Xrotation Zrotation Yrotation
			JOINT rFoot
			{
				OFFSET 0.000000 -19.190928 -1.224953 
				CHANNELS 3 Xrotation Yrotation Zrotation
				End Site
				{
					OFFSET 0.000000 -2.449906 4.627600 
				}
			}
		}
	}
}
MOTION
Frames: 20
Frame Time: 0.033333
-0.221408 46.771893 0.190029 -1.496505 -1.883927 -1.709987 0.000000 0.000000 0.000000 11.791785 0.757205 6.240849 21.633707 13.308952 0.904757 2.862386 -4.525700 -27.035168 -12.657210 29.996185 24.992788 -132.300430 -48.966068 14.424504 -40.462025 -25.116804 43.938255 -12.858106 4.402433 48.571434 -27.924805 -16.434237 15.554878 64.693672 -5.238269 70.109276 30.035019 -24.727501 6.920406 30.265671 -9.519258 -9.343363 10.691971 8.066548 19.787392 52.482323 9.915526 -0.068588 -22.117975 -7.110528 -26.293478 -29.181871 0.721869 2.462282 59.704548 -5.141409 3.472824 1.064579 -2.147141 42.755238 
-0.561402 46.635620 0.366402 -1.220793 -2.117704 -2.110821 0.000000 0.000000 0.000000 11.170301 0.698946 6.250486 21.493483 13.709145 0.945046 3.090703 -4.419860 -26.618950 -13.494629 29.992105 24.988268 -131.438705 -49.364933 14.023173 -40.154560 -24.874958 45.181965 -13.736519 5.542804 48.024677 -28.295012 -15.875375 15.720275 63.245483 -4.431210 68.972702 30.923271 -24.020178 7.404016 26.671068 -8.639523 -9.383214 11.352596 9.158864 20.185337 54.667442 10.783587 0.058941 -18.939255 -6.740699 -26.843916 -29.340563 0.771180 2.497331 62.699123 -3.861194 4.007838 1.164347 -0.853019 44.005787 
-0.952145 46.602489 0.529497 -1.360881 -2.917311 -2.425196 0.000000 0.000000 0.000000 11.041843 1.028848 6.329205 21.560108 14.441216 1.009025 3.263215 -4.684536 -26.345417 -14.737035 29.996695 24.996174 -130.593353 -50.082409 13.678304 -39.597122 -23.739100 45.190670 -14.038306 6.515762 47.657532 -28.830584 -15.172956 15.920722 61.921833 -3.555913 67.939445 31.448568 -23.189220 6.409463 23.438358 -8.873695 -9.740854 11.105003 10.875460 20.875931 58.307686 12.383456 0.245476 -13.523451 -6.640130 -26.064529 -28.313679 1.356591 2.617925 64.629555 -2.504862 4.492762 0.875162 0.503502 44.593914 
-1.252050 46.629021 0.574666 -1.132434 -3.492137 -2.730253 0.000000 0.000000 0.000000 10.666883 1.329535 6.408143 21.715366 15.026927 1.042354 3.382141 -4.975828 -26.298634 -15.878469 29.998777 24.986353 -129.953186 -50.758713 13.436885 -38.810516 -22.060196 43.753719 -13.038472 6.828077 47.767811 -29.394535 -14.774772 15.948540 60.772106 -2.828101 67.077431 32.031780 -22.360561 4.046055 21.383636 -9.272698 -10.178804 8.315802 12.204149 21.524614 63.923985 14.597998 0.529884 -6.593759 -5.908039 -23.604694 -27.223234 1.552648 2.592952 65.731064 -1.264713 4.860418 -0.093692 2.284352 44.713245 
-1.470525 46.727222 0.497801 -0.622389 -4.160791 -3.799609 0.000000 0.000000 0.000000 10.294230 1.959688 6.576420 21.960609 14.841499 1.020958 3.370058 -5.135159 -25.658079 -15.865180 29.993366 24.986862 -128.333710 -50.576984 12.532426 -38.495338 -19.920177 40.813797 -10.963861 6.830765 48.179081 -29.315748 -14.793619 15.964581 59.816761 -1.607637 66.278877 32.724628 -21.888792 1.088737 20.990889 -9.738880 -10.506113 3.677224 13.586910 22.086927 70.891541 16.343054 0.725097 -0.659973 -4.472060 -21.211912 -26.078022 1.942291 2.698235 66.029121 -0.132444 5.132072 -1.061716 4.325410 44.239418 
-1.596668 46.905296 0.345478 -0.224264 -4.750384 -5.880423 0.000000 0.000000 0.000000 10.351521 2.725171 6.745948 22.237991 13.845844 0.947382 3.306619 -5.334889 -24.076057 -14.505683 29.993139 24.996149 -125.169296 -49.219494 10.628215 -38.806484 -17.698982 36.526287 -8.291536 6.561182 48.763012 -28.340380 -15.211953 16.068794 59.129078 0.524481 65.531006 33.157871 -21.895771 -1.320732 21.155205 -9.772988 -10.677749 -1.387081 15.000453 22.531717 77.574181 16.740639 0.638262 2.455268 -3.373046 -20.203783 -24.701298 2.713789 2.832151 65.755089 0.433948 5.237151 -1.519602 6.459205 43.253834 
-1.565507 47.154034 0.133111 0.023829 -4.805785 -8.840378 0.000000 0.000000 0.000000 10.819426 3.103016 6.806950 22.507072 12.196055 0.819842 3.089495 -5.498761 -21.765982 -12.446298 29.995142 24.989702 -120.701355 -46.918140 7.943146 -39.434601 -15.737904 30.886839 -5.794725 6.478674 49.325668 -26.696972 -15.946627 16.247803 58.649509 3.924184 64.735245 33.098602 -22.283211 -2.741180 21.150702 -9.349838 -10.740786 -6.406185 15.880607 22.626144 82.252342 15.332762 0.255855 3.682196 -2.691586 -19.636808 -23.067146 3.181706 2.909568 65.012680 0.249394 5.111109 -1.696868 8.956189 41.775501 
-1.345887 47.465199 -0.130351 0.223108 -4.271746 -12.496322 0.000000 0.000000 0.000000 11.537029 3.074113 6.777695 22.680170 9.989614 0.645470 2.756675 -5.700214 -18.975033 -10.305364 29.998142 24.988499 -115.713173 -43.818871 5.008149 -40.158417 -13.575631 25.291080 -4.327708 6.808846 49.627174 -24.757786 -17.151070 16.357891 58.363674 8.828898 63.795170 32.607277 -22.716106 -3.911731 20.849422 -8.982068 -10.788642 -11.316401 16.300150 22.393524 84.012894 11.942757 -0.563916 4.465073 -1.659104 -19.306019 -21.258413 2.802912 2.709168 63.895443 -0.184654 4.907317 -1.954598 11.930831 39.571480 
-0.960181 47.790142 -0.407226 0.586358 -3.137196 -16.490770 0.000000 0.000000 0.000000 12.048388 2.657764 6.657696 22.686403 7.538830 0.454304 2.454967 -5.978357 -16.106201 -8.192646 29.992477 24.983969 -111.294319 -39.997227 2.413620 -40.694511 -11.163689 21.035591 -3.827200 7.689595 49.634121 -22.686871 -18.836712 16.371862 58.299908 14.796234 62.760654 31.817385 -22.780638 -5.693396 20.171282 -8.761841 -10.900668 -15.946488 16.482338 21.959648 82.774376 7.021901 -1.622832 5.132201 0.473007 -19.795200 -19.731646 1.054417 2.135154 62.621700 -0.013805 4.838479 -2.348983 15.157629 36.667603 
-0.459528 48.092030 -0.659383 1.357794 -1.680915 -20.702951 0.000000 0.000000 0.000000 12.002208 2.289534 6.577920 22.626358 4.619102 0.235187 2.038196 -6.028579 -13.219246 -5.577703 29.992403 24.987719 -107.622742 -35.527847 0.274918 -40.952015 -8.752774 18.698591 -4.074064 9.258854 49.365826 -20.210705 -21.003536 16.503862 58.403473 21.528925 61.564110 30.732300 -22.449930 -8.064303 19.409721 -8.709611 -11.033032 -19.948290 16.840338 21.574781 78.570984 1.231812 -2.845931 5.598194 3.925417 -20.809164 -18.953114 -1.738101 1.267975 61.454880 1.397636 5.021756 -2.491712 17.765715 33.835739 
0.108310 48.354389 -0.881234 2.542061 0.035391 -25.039066 0.000000 0.000000 0.000000 11.402576 2.095630 6.547501 22.460745 1.132813 -0.009764 1.491882 -5.718315 -10.256891 -2.099977 29.995941 24.989017 -104.753578 -30.775808 -1.388721 -40.600636 -6.435643 18.168610 -4.585465 11.016894 48.975243 -17.057613 -23.520332 17.012991 58.484589 29.080931 60.030739 29.319448 -21.949018 -10.573351 18.830215 -8.545476 -11.091850 -23.261862 17.451483 21.318964 71.634857 -4.839466 -4.087923 5.671277 8.499459 -22.139334 -18.778137 -5.400051 0.164557 60.483379 4.434699 5.576293 -2.023246 18.588499 31.602364 
0.658630 48.539658 -1.064081 4.042361 1.899628 -29.285217 0.000000 0.000000 0.000000 10.288066 2.066280 6.606053 22.113350 -2.685512 -0.293562 1.054461 -5.018741 -7.215329 2.173985 28.703419 23.353285 -102.508041 -26.124481 -2.718637 -39.547771 -4.660803 18.245790 -4.943488 12.675196 48.664215 -13.228482 -26.228462 18.041941 58.374710 37.232536 57.996708 27.531910 -21.222488 -12.825585 18.452684 -8.094249 -11.049250 -25.874769 18.362804 21.273767 62.881931 -9.907637 -5.027617 5.286391 12.549192 -23.856991 -18.977810 -9.235215 -0.971118 59.998234 8.847685 6.520711 -1.426501 16.503126 30.440605 
1.115005 48.621635 -1.186332 5.485543 3.531639 -33.411423 0.000000 0.000000 0.000000 9.095208 2.279335 6.685254 21.570290 -6.571932 -0.580209 0.851886 -4.091632 -3.995106 6.959690 25.636890 21.263376 -100.237793 -21.758884 -4.033339 -38.303783 -3.873134 18.309309 -5.136349 14.103540 48.499599 -8.729750 -28.843531 19.728075 57.756447 45.671753 55.229843 25.148048 -19.932291 -14.735139 18.005489 -7.319344 -10.985584 -27.476597 19.740055 21.517370 54.332302 -13.274556 -5.526383 4.485162 14.920340 -26.051424 -19.208250 -12.235932 -1.891397 60.188271 13.397329 7.538030 -1.619509 12.078122 30.427677 
1.470801 48.575619 -1.236965 6.660284 4.751604 -37.317127 0.000000 0.000000 0.000000 8.157995 2.647212 6.814227 20.788874 -10.096636 -0.823674 0.830222 -3.329848 -0.675527 11.616642 22.844675 19.625963 -98.084694 -17.633339 -5.334040 -37.299259 -3.828224 18.472462 -5.533602 15.000129 48.339809 -3.795721 -30.000000 21.997875 56.222778 53.918995 51.415478 22.477331 -18.333931 -15.801513 17.848953 -5.935406 -10.805145 -28.198622 21.428015 22.039860 47.909374 -15.205510 -5.643551 3.451121 16.169563 -28.109156 -19.331379 -13.971234 -2.452154 60.921413 16.688150 8.386730 -3.181378 6.937127 31.273329 
1.752490 48.389618 -1.178731 7.508119 5.509337 -40.567852 0.000000 0.000000 0.000000 7.489887 3.121447 6.953746 19.935774 -12.810492 -1.032787 0.792182 -2.830039 2.150637 15.154511 20.804817 18.616404 -96.518448 -13.521618 -6.321783 -36.734875 -4.068567 18.559301 -6.069347 15.627983 48.168930 0.617567 -30.000000 24.336542 53.321049 61.283512 46.298740 20.389744 -16.856504 -15.706790 18.122835 -4.484104 -10.553911 -28.560068 22.921677 22.620146 44.619614 -15.988780 -5.704535 2.626272 17.210623 -28.766605 -19.060369 -14.734620 -2.729439 61.894253 18.076263 8.833030 -5.831108 3.021646 32.940857 
1.966885 48.111347 -0.972449 7.758188 5.767045 -42.757248 0.000000 0.000000 0.000000 7.277786 3.498845 7.044897 19.283491 -14.567501 -1.151174 0.844105 -2.454957 3.997580 17.255074 19.527323 18.139387 -95.690689 -9.596782 -6.939024 -36.461544 -4.573298 17.826307 -6.046092 16.814142 48.223011 3.612287 -30.000000 24.999081 49.603069 67.342247 40.280678 19.044975 -15.603197 -13.512571 18.247013 -3.391383 -10.295834 -28.533247 23.531515 22.889221 44.156261 -16.014387 -5.686138 1.815706 17.168488 -27.154015 -18.161619 -15.446999 -2.988780 63.091545 17.500032 8.806132 -8.135436 2.084290 35.646904 
2.101017 47.828850 -0.577423 7.038791 5.307332 -43.474426 0.000000 0.000000 0.000000 7.917080 3.682836 7.065629 19.156267 -15.319036 -1.205954 0.943596 -2.287899 4.485859 18.179668 18.796949 17.998707 -95.502007 -6.459236 -7.169162 -36.144779 -5.072683 17.785986 -6.027248 18.229296 48.278240 4.683986 -30.000000 24.999790 47.399719 71.352493 35.842010 18.556328 -15.000313 -9.580197 18.150454 -2.438088 -10.040761 -27.596235 22.751211 22.732937 45.342731 -15.517906 -5.626037 0.272135 15.697088 -22.434040 -15.846162 -17.095415 -3.645944 64.201424 15.828855 8.518063 -8.652637 4.491261 39.852757 
2.192325 47.538311 -0.090400 6.246791 4.458966 -42.777187 0.000000 0.000000 0.000000 8.656140 4.089268 7.137830 19.407621 -15.201875 -1.205944 1.061911 -2.260721 3.772372 18.607325 18.717068 17.855469 -95.873497 -4.084222 -7.041585 -35.889179 -5.383328 20.519201 -7.186585 19.307896 47.837372 4.450731 -30.000000 24.996325 48.568035 73.119385 35.348866 19.274906 -15.354954 -6.058718 17.864613 -1.825984 -9.825384 -26.815535 21.248465 22.254799 47.491524 -14.502782 -5.488617 -1.813688 13.997503 -17.206797 -12.762302 -19.225735 -4.495721 64.926292 14.071583 8.167326 -7.708045 8.864916 45.012154 
2.282429 47.226078 0.378741 6.024111 3.774039 -41.319996 0.000000 0.000000 0.000000 8.743004 4.766123 7.281753 19.708611 -14.694380 -1.163103 1.275136 -2.107367 2.501540 19.185240 19.118387 17.515049 -96.333466 -2.226301 -6.837576 -35.986732 -5.891788 25.442463 -9.551234 20.225002 46.852333 3.997422 -30.000000 24.993568 51.546188 73.232735 37.572124 20.540430 -15.768832 -5.018682 17.481304 -1.892661 -9.711396 -26.883825 19.568865 21.533207 50.151859 -13.088339 -5.258722 -3.699729 12.704930 -14.167522 -10.039036 -21.005533 -5.254899 65.367973 12.314955 7.819706 -6.533217 13.153514 49.289490 
2.362861 46.938068 0.816171 5.918451 3.361104 -39.857079 0.000000 0.000000 0.000000 8.547178 5.345686 7.425752 19.935564 -14.460101 -1.151166 1.651021 -1.669480 1.318653 20.311602 19.354088 16.984007 -96.272018 -0.932646 -6.932034 -36.345406 -6.811569 30.507057 -12.442814 20.692657 45.622566 4.217311 -30.000000 24.992582 55.233692 72.493088 40.930901 21.263634 -15.982028 -5.155890 17.169373 -2.297741 -9.631885 -26.919867 17.826427 20.893147 52.747528 -11.644661 -5.034067 -5.478816 12.066783 -13.252400 -7.762998 -21.998238 -5.699642 65.597847 10.116665 7.339106 -5.807850 16.070959 51.931644 
